<mxfile host="Electron" modified="2023-10-31T20:58:17.292Z" agent="Mozilla/5.0 (Macintosh; Intel Mac OS X 10_15_7) AppleWebKit/537.36 (KHTML, like Gecko) draw.io/21.2.8 Chrome/112.0.5615.165 Electron/24.2.0 Safari/537.36" etag="YR_hfgCc6j4ovkG2NnqK" version="21.2.8" type="device">
  <diagram name="Страница 1" id="3bbIFnPf2TPaF0G1w0gs">
    <mxGraphModel dx="945" dy="828" grid="1" gridSize="10" guides="1" tooltips="1" connect="1" arrows="1" fold="1" page="0" pageScale="1" pageWidth="827" pageHeight="1169" math="0" shadow="0">
      <root>
        <mxCell id="0" />
        <mxCell id="1" parent="0" />
        <mxCell id="powzXQEPKNK8bATRuLBN-1" value="" style="ellipse;html=1;shape=startState;fillColor=#000000;strokeColor=default;fontSize=16;" vertex="1" parent="1">
          <mxGeometry x="185" y="-50" width="30" height="30" as="geometry" />
        </mxCell>
        <mxCell id="powzXQEPKNK8bATRuLBN-2" value="" style="edgeStyle=orthogonalEdgeStyle;html=1;verticalAlign=bottom;endArrow=classic;endSize=8;strokeColor=default;rounded=0;fontSize=12;curved=1;entryX=0.5;entryY=0;entryDx=0;entryDy=0;endFill=1;" edge="1" source="powzXQEPKNK8bATRuLBN-1" parent="1" target="powzXQEPKNK8bATRuLBN-6">
          <mxGeometry relative="1" as="geometry">
            <mxPoint x="200" y="3" as="targetPoint" />
          </mxGeometry>
        </mxCell>
        <mxCell id="powzXQEPKNK8bATRuLBN-8" value="" style="edgeStyle=none;curved=1;rounded=0;orthogonalLoop=1;jettySize=auto;html=1;fontSize=12;startSize=8;endSize=8;" edge="1" parent="1" source="powzXQEPKNK8bATRuLBN-6" target="powzXQEPKNK8bATRuLBN-7">
          <mxGeometry relative="1" as="geometry" />
        </mxCell>
        <mxCell id="powzXQEPKNK8bATRuLBN-6" value="Ввод a" style="html=1;whiteSpace=wrap;fontSize=16;rounded=1;arcSize=50;" vertex="1" parent="1">
          <mxGeometry x="145" y="10" width="110" height="30" as="geometry" />
        </mxCell>
        <mxCell id="powzXQEPKNK8bATRuLBN-7" value="" style="rhombus;whiteSpace=wrap;html=1;fontSize=16;rounded=0;arcSize=50;" vertex="1" parent="1">
          <mxGeometry x="180" y="60" width="40" height="40" as="geometry" />
        </mxCell>
        <mxCell id="powzXQEPKNK8bATRuLBN-41" value="" style="edgeStyle=none;curved=1;rounded=0;orthogonalLoop=1;jettySize=auto;html=1;fontSize=12;startSize=8;endSize=8;" edge="1" parent="1" source="powzXQEPKNK8bATRuLBN-11" target="powzXQEPKNK8bATRuLBN-40">
          <mxGeometry relative="1" as="geometry" />
        </mxCell>
        <mxCell id="powzXQEPKNK8bATRuLBN-11" value="Вывод &quot;Ошибка&quot;" style="html=1;whiteSpace=wrap;fontSize=16;rounded=1;arcSize=50;" vertex="1" parent="1">
          <mxGeometry x="245" y="140" width="180" height="30" as="geometry" />
        </mxCell>
        <mxCell id="powzXQEPKNK8bATRuLBN-21" value="[ a &amp;lt; 0 ]" style="text;html=1;align=center;verticalAlign=middle;resizable=0;points=[];autosize=1;strokeColor=none;fillColor=none;fontSize=16;" vertex="1" parent="1">
          <mxGeometry x="245" y="50" width="80" height="30" as="geometry" />
        </mxCell>
        <mxCell id="powzXQEPKNK8bATRuLBN-25" value="" style="edgeStyle=none;curved=1;rounded=0;orthogonalLoop=1;jettySize=auto;html=1;fontSize=12;startSize=8;endSize=8;" edge="1" parent="1" source="powzXQEPKNK8bATRuLBN-23" target="powzXQEPKNK8bATRuLBN-24">
          <mxGeometry relative="1" as="geometry" />
        </mxCell>
        <mxCell id="powzXQEPKNK8bATRuLBN-23" value="x := 1" style="html=1;whiteSpace=wrap;fontSize=16;rounded=1;arcSize=50;" vertex="1" parent="1">
          <mxGeometry x="160" y="330" width="80" height="30" as="geometry" />
        </mxCell>
        <mxCell id="powzXQEPKNK8bATRuLBN-29" style="edgeStyle=none;curved=1;rounded=0;orthogonalLoop=1;jettySize=auto;html=1;entryX=0.5;entryY=0;entryDx=0;entryDy=0;fontSize=12;startSize=8;endSize=8;" edge="1" parent="1" source="powzXQEPKNK8bATRuLBN-24" target="powzXQEPKNK8bATRuLBN-28">
          <mxGeometry relative="1" as="geometry" />
        </mxCell>
        <mxCell id="powzXQEPKNK8bATRuLBN-24" value="eps := 1e-10" style="html=1;whiteSpace=wrap;fontSize=16;rounded=1;arcSize=50;" vertex="1" parent="1">
          <mxGeometry x="140" y="390" width="120" height="30" as="geometry" />
        </mxCell>
        <mxCell id="powzXQEPKNK8bATRuLBN-28" value="" style="rhombus;whiteSpace=wrap;html=1;fontSize=16;rounded=0;arcSize=50;" vertex="1" parent="1">
          <mxGeometry x="180" y="440" width="40" height="40" as="geometry" />
        </mxCell>
        <mxCell id="powzXQEPKNK8bATRuLBN-50" style="edgeStyle=none;curved=1;rounded=0;orthogonalLoop=1;jettySize=auto;html=1;exitX=0.5;exitY=1;exitDx=0;exitDy=0;entryX=0.5;entryY=0;entryDx=0;entryDy=0;fontSize=12;startSize=8;endSize=8;" edge="1" parent="1" source="powzXQEPKNK8bATRuLBN-30" target="powzXQEPKNK8bATRuLBN-49">
          <mxGeometry relative="1" as="geometry">
            <mxPoint x="199.97" y="560" as="sourcePoint" />
          </mxGeometry>
        </mxCell>
        <mxCell id="powzXQEPKNK8bATRuLBN-30" value="" style="rhombus;whiteSpace=wrap;html=1;fontSize=16;rounded=0;arcSize=50;" vertex="1" parent="1">
          <mxGeometry x="180" y="500" width="40" height="40" as="geometry" />
        </mxCell>
        <mxCell id="powzXQEPKNK8bATRuLBN-31" style="edgeStyle=none;curved=1;rounded=0;orthogonalLoop=1;jettySize=auto;html=1;entryX=0.5;entryY=0;entryDx=0;entryDy=0;fontSize=12;startSize=8;endSize=8;" edge="1" target="powzXQEPKNK8bATRuLBN-30" parent="1">
          <mxGeometry relative="1" as="geometry">
            <mxPoint x="200" y="480" as="sourcePoint" />
          </mxGeometry>
        </mxCell>
        <mxCell id="powzXQEPKNK8bATRuLBN-38" value="" style="edgeStyle=segmentEdgeStyle;endArrow=none;html=1;curved=0;rounded=0;endSize=8;startSize=8;sourcePerimeterSpacing=0;targetPerimeterSpacing=0;fontSize=12;endFill=0;" edge="1" parent="1">
          <mxGeometry width="140" relative="1" as="geometry">
            <mxPoint x="180" y="80" as="sourcePoint" />
            <mxPoint x="80" y="280" as="targetPoint" />
            <Array as="points">
              <mxPoint x="80" y="80" />
              <mxPoint x="80" y="140" />
            </Array>
          </mxGeometry>
        </mxCell>
        <mxCell id="powzXQEPKNK8bATRuLBN-40" value="exit(1)" style="html=1;whiteSpace=wrap;fontSize=16;rounded=1;arcSize=50;" vertex="1" parent="1">
          <mxGeometry x="295" y="210" width="80" height="30" as="geometry" />
        </mxCell>
        <mxCell id="powzXQEPKNK8bATRuLBN-44" style="edgeStyle=none;curved=1;rounded=0;orthogonalLoop=1;jettySize=auto;html=1;fontSize=12;startSize=8;endSize=8;entryX=0;entryY=0.5;entryDx=0;entryDy=0;" edge="1" parent="1" target="powzXQEPKNK8bATRuLBN-43">
          <mxGeometry relative="1" as="geometry">
            <mxPoint x="120" y="260" as="targetPoint" />
            <mxPoint x="80" y="280" as="sourcePoint" />
          </mxGeometry>
        </mxCell>
        <mxCell id="powzXQEPKNK8bATRuLBN-48" style="edgeStyle=none;curved=1;rounded=0;orthogonalLoop=1;jettySize=auto;html=1;exitX=0.5;exitY=1;exitDx=0;exitDy=0;entryX=0.5;entryY=0;entryDx=0;entryDy=0;fontSize=12;startSize=8;endSize=8;" edge="1" parent="1" source="powzXQEPKNK8bATRuLBN-43" target="powzXQEPKNK8bATRuLBN-23">
          <mxGeometry relative="1" as="geometry" />
        </mxCell>
        <mxCell id="powzXQEPKNK8bATRuLBN-43" value="" style="rhombus;whiteSpace=wrap;html=1;fontSize=16;rounded=0;arcSize=50;" vertex="1" parent="1">
          <mxGeometry x="180" y="260" width="40" height="40" as="geometry" />
        </mxCell>
        <mxCell id="powzXQEPKNK8bATRuLBN-49" value="xp := x" style="html=1;whiteSpace=wrap;fontSize=16;rounded=1;arcSize=50;" vertex="1" parent="1">
          <mxGeometry x="139.97" y="580" width="120" height="30" as="geometry" />
        </mxCell>
        <mxCell id="powzXQEPKNK8bATRuLBN-51" style="edgeStyle=none;curved=1;rounded=0;orthogonalLoop=1;jettySize=auto;html=1;exitX=0.5;exitY=1;exitDx=0;exitDy=0;entryX=0.5;entryY=0;entryDx=0;entryDy=0;fontSize=12;startSize=8;endSize=8;" edge="1" target="powzXQEPKNK8bATRuLBN-52" parent="1">
          <mxGeometry relative="1" as="geometry">
            <mxPoint x="199.97" y="610" as="sourcePoint" />
          </mxGeometry>
        </mxCell>
        <mxCell id="powzXQEPKNK8bATRuLBN-52" value="x := (x + a / x) / 2" style="html=1;whiteSpace=wrap;fontSize=16;rounded=1;arcSize=50;" vertex="1" parent="1">
          <mxGeometry x="119.97" y="630" width="160" height="30" as="geometry" />
        </mxCell>
        <mxCell id="powzXQEPKNK8bATRuLBN-53" value="" style="rhombus;whiteSpace=wrap;html=1;fontSize=16;rounded=0;arcSize=50;" vertex="1" parent="1">
          <mxGeometry x="179.97" y="680" width="40" height="40" as="geometry" />
        </mxCell>
        <mxCell id="powzXQEPKNK8bATRuLBN-54" style="edgeStyle=none;curved=1;rounded=0;orthogonalLoop=1;jettySize=auto;html=1;entryX=0.5;entryY=0;entryDx=0;entryDy=0;fontSize=12;startSize=8;endSize=8;" edge="1" target="powzXQEPKNK8bATRuLBN-53" parent="1">
          <mxGeometry relative="1" as="geometry">
            <mxPoint x="199.97" y="660" as="sourcePoint" />
          </mxGeometry>
        </mxCell>
        <mxCell id="powzXQEPKNK8bATRuLBN-59" value="break" style="html=1;whiteSpace=wrap;fontSize=16;rounded=1;arcSize=50;" vertex="1" parent="1">
          <mxGeometry x="39.97" y="760" width="80" height="30" as="geometry" />
        </mxCell>
        <mxCell id="powzXQEPKNK8bATRuLBN-60" value="&amp;nbsp;[ | x - xp | &amp;lt; eps ]&amp;nbsp;" style="text;html=1;align=center;verticalAlign=middle;resizable=0;points=[];autosize=1;strokeColor=none;fillColor=none;fontSize=16;" vertex="1" parent="1">
          <mxGeometry x="39.97" y="670" width="150" height="30" as="geometry" />
        </mxCell>
        <mxCell id="powzXQEPKNK8bATRuLBN-61" value="" style="edgeStyle=segmentEdgeStyle;endArrow=none;html=1;curved=0;rounded=0;endSize=8;startSize=8;sourcePerimeterSpacing=0;targetPerimeterSpacing=0;fontSize=12;endFill=0;" edge="1" parent="1">
          <mxGeometry width="140" relative="1" as="geometry">
            <mxPoint x="219.97" y="700" as="sourcePoint" />
            <mxPoint x="320" y="820" as="targetPoint" />
            <Array as="points">
              <mxPoint x="319.97" y="700" />
            </Array>
          </mxGeometry>
        </mxCell>
        <mxCell id="powzXQEPKNK8bATRuLBN-62" value="" style="edgeStyle=segmentEdgeStyle;endArrow=classic;html=1;curved=0;rounded=0;endSize=8;startSize=8;sourcePerimeterSpacing=0;targetPerimeterSpacing=0;fontSize=12;" edge="1" parent="1">
          <mxGeometry width="140" relative="1" as="geometry">
            <mxPoint x="179.97" y="700" as="sourcePoint" />
            <mxPoint x="79.97" y="760" as="targetPoint" />
            <Array as="points">
              <mxPoint x="79.97" y="700" />
              <mxPoint x="79.97" y="760" />
            </Array>
          </mxGeometry>
        </mxCell>
        <mxCell id="powzXQEPKNK8bATRuLBN-65" style="edgeStyle=none;curved=1;rounded=0;orthogonalLoop=1;jettySize=auto;html=1;fontSize=12;startSize=8;endSize=8;entryX=1;entryY=0.5;entryDx=0;entryDy=0;" edge="1" parent="1" target="powzXQEPKNK8bATRuLBN-66">
          <mxGeometry relative="1" as="geometry">
            <mxPoint x="340" y="820" as="targetPoint" />
            <mxPoint x="320" y="820" as="sourcePoint" />
          </mxGeometry>
        </mxCell>
        <mxCell id="powzXQEPKNK8bATRuLBN-66" value="" style="rhombus;whiteSpace=wrap;html=1;fontSize=16;rounded=0;arcSize=50;" vertex="1" parent="1">
          <mxGeometry x="180" y="800" width="40" height="40" as="geometry" />
        </mxCell>
        <mxCell id="powzXQEPKNK8bATRuLBN-68" value="" style="edgeStyle=segmentEdgeStyle;endArrow=classic;html=1;curved=0;rounded=0;endSize=8;startSize=8;sourcePerimeterSpacing=0;targetPerimeterSpacing=0;fontSize=12;exitX=0.5;exitY=1;exitDx=0;exitDy=0;entryX=0;entryY=0.5;entryDx=0;entryDy=0;" edge="1" parent="1" source="powzXQEPKNK8bATRuLBN-66" target="powzXQEPKNK8bATRuLBN-28">
          <mxGeometry width="140" relative="1" as="geometry">
            <mxPoint x="195" y="870" as="sourcePoint" />
            <mxPoint x="-20" y="460" as="targetPoint" />
            <Array as="points">
              <mxPoint x="200" y="870" />
              <mxPoint y="870" />
              <mxPoint y="460" />
            </Array>
          </mxGeometry>
        </mxCell>
        <mxCell id="powzXQEPKNK8bATRuLBN-69" value="&amp;nbsp;[ else ]&amp;nbsp;" style="text;html=1;align=center;verticalAlign=middle;resizable=0;points=[];autosize=1;strokeColor=none;fillColor=none;fontSize=16;" vertex="1" parent="1">
          <mxGeometry x="240" y="480" width="80" height="30" as="geometry" />
        </mxCell>
        <mxCell id="powzXQEPKNK8bATRuLBN-70" value="&amp;nbsp;[ True ]&amp;nbsp;" style="text;html=1;align=center;verticalAlign=middle;resizable=0;points=[];autosize=1;strokeColor=none;fillColor=none;fontSize=16;" vertex="1" parent="1">
          <mxGeometry x="210" y="540" width="80" height="30" as="geometry" />
        </mxCell>
        <mxCell id="powzXQEPKNK8bATRuLBN-71" value="" style="edgeStyle=segmentEdgeStyle;endArrow=classic;html=1;curved=0;rounded=0;endSize=8;startSize=8;sourcePerimeterSpacing=0;targetPerimeterSpacing=0;fontSize=12;exitX=1;exitY=0.5;exitDx=0;exitDy=0;" edge="1" parent="1" source="powzXQEPKNK8bATRuLBN-30">
          <mxGeometry width="140" relative="1" as="geometry">
            <mxPoint x="310" y="510" as="sourcePoint" />
            <mxPoint x="410" y="570" as="targetPoint" />
            <Array as="points">
              <mxPoint x="410" y="520" />
              <mxPoint x="410" y="570" />
            </Array>
          </mxGeometry>
        </mxCell>
        <mxCell id="powzXQEPKNK8bATRuLBN-72" value="" style="edgeStyle=segmentEdgeStyle;endArrow=classic;html=1;curved=0;rounded=0;endSize=8;startSize=8;sourcePerimeterSpacing=0;targetPerimeterSpacing=0;fontSize=12;exitX=0;exitY=0.5;exitDx=0;exitDy=0;entryX=0;entryY=0.5;entryDx=0;entryDy=0;" edge="1" parent="1" source="powzXQEPKNK8bATRuLBN-59" target="powzXQEPKNK8bATRuLBN-30">
          <mxGeometry width="140" relative="1" as="geometry">
            <mxPoint x="-20" y="770" as="sourcePoint" />
            <mxPoint x="120" y="830" as="targetPoint" />
            <Array as="points">
              <mxPoint x="20" y="775" />
              <mxPoint x="20" y="520" />
            </Array>
          </mxGeometry>
        </mxCell>
        <mxCell id="powzXQEPKNK8bATRuLBN-75" value="" style="edgeStyle=none;curved=1;rounded=0;orthogonalLoop=1;jettySize=auto;html=1;fontSize=12;startSize=8;endSize=8;" edge="1" parent="1" source="powzXQEPKNK8bATRuLBN-73" target="powzXQEPKNK8bATRuLBN-74">
          <mxGeometry relative="1" as="geometry" />
        </mxCell>
        <mxCell id="powzXQEPKNK8bATRuLBN-73" value="Вывод x" style="html=1;whiteSpace=wrap;fontSize=16;rounded=1;arcSize=50;" vertex="1" parent="1">
          <mxGeometry x="360" y="570" width="100" height="30" as="geometry" />
        </mxCell>
        <mxCell id="powzXQEPKNK8bATRuLBN-77" style="edgeStyle=none;curved=1;rounded=0;orthogonalLoop=1;jettySize=auto;html=1;exitX=0.5;exitY=1;exitDx=0;exitDy=0;entryX=0.5;entryY=0;entryDx=0;entryDy=0;fontSize=12;startSize=8;endSize=8;" edge="1" parent="1" source="powzXQEPKNK8bATRuLBN-74" target="powzXQEPKNK8bATRuLBN-76">
          <mxGeometry relative="1" as="geometry" />
        </mxCell>
        <mxCell id="powzXQEPKNK8bATRuLBN-74" value="Вывод&amp;nbsp;√a" style="html=1;whiteSpace=wrap;fontSize=16;rounded=1;arcSize=50;" vertex="1" parent="1">
          <mxGeometry x="360" y="620" width="100" height="30" as="geometry" />
        </mxCell>
        <mxCell id="powzXQEPKNK8bATRuLBN-76" value="" style="ellipse;html=1;shape=endState;fillColor=#000000;strokeColor=default;fontSize=16;" vertex="1" parent="1">
          <mxGeometry x="395" y="710" width="30" height="30" as="geometry" />
        </mxCell>
        <mxCell id="powzXQEPKNK8bATRuLBN-78" value="" style="edgeStyle=segmentEdgeStyle;endArrow=classic;html=1;curved=0;rounded=0;endSize=8;startSize=8;sourcePerimeterSpacing=0;targetPerimeterSpacing=0;fontSize=12;entryX=0.5;entryY=0;entryDx=0;entryDy=0;" edge="1" parent="1" target="powzXQEPKNK8bATRuLBN-11">
          <mxGeometry width="140" relative="1" as="geometry">
            <mxPoint x="220" y="80" as="sourcePoint" />
            <mxPoint x="410" as="targetPoint" />
            <Array as="points">
              <mxPoint x="335" y="80" />
            </Array>
          </mxGeometry>
        </mxCell>
        <mxCell id="powzXQEPKNK8bATRuLBN-79" value="" style="edgeStyle=segmentEdgeStyle;endArrow=classic;html=1;curved=0;rounded=0;endSize=8;startSize=8;sourcePerimeterSpacing=0;targetPerimeterSpacing=0;fontSize=12;" edge="1" parent="1">
          <mxGeometry width="140" relative="1" as="geometry">
            <mxPoint x="375" y="220" as="sourcePoint" />
            <mxPoint x="410" y="680" as="targetPoint" />
            <Array as="points">
              <mxPoint x="490" y="220" />
            </Array>
          </mxGeometry>
        </mxCell>
      </root>
    </mxGraphModel>
  </diagram>
</mxfile>
